<?xml version="1.0" encoding="UTF-8"?>
<svg id="Layer_1" data-name="Layer 1" xmlns="http://www.w3.org/2000/svg" viewBox="0 0 700.52 705.55">
  <defs>
    <style>
      .cls-1 {
        fill: #623d3c;
      }
    </style>
  </defs>
  <g>
    <g>
      <path class="cls-1" d="M142.72,101.67l6.33,6.77-19.34,18.06,7.33,7.85,17.75-16.58,5.85,6.26-17.74,16.58,8.39,8.97,19.74-18.45,6.32,6.77-27.8,25.97-34.22-36.62,27.39-25.59Z"/>
      <path class="cls-1" d="M192.38,127.42l-41.31-32.68,9.4-6.27,28.84,23.11.12-.08-10.17-35.58,9.46-6.31,13.99,50.92-10.33,6.9Z"/>
      <path class="cls-1" d="M234.29,48.31l3.8,8.44-24.12,10.88,4.42,9.79,22.13-9.99,3.52,7.81-22.14,9.99,5.05,11.2,24.64-11.11,3.81,8.45-34.67,15.65-20.62-45.68,34.17-15.42Z"/>
      <path class="cls-1" d="M276.41,36.03c2.18-.55,4.23-.7,6.15-.44,1.93.26,3.67.84,5.23,1.75,1.56.91,2.87,2.09,3.93,3.53,1.07,1.45,1.84,3.09,2.31,4.96.72,2.86.75,5.48.08,7.87-.68,2.39-2.23,4.48-4.68,6.25l.03.14c1.41.03,2.63.31,3.68.84,1.06.53,1.98,1.24,2.78,2.12.8.88,1.49,1.9,2.05,3.06.56,1.16,1.04,2.34,1.44,3.55.24.76.51,1.66.83,2.69.31,1.03.65,2.08,1.04,3.14.39,1.06.83,2.05,1.33,2.96.5.92,1.08,1.65,1.75,2.2l-10.68,2.71c-.98-1.39-1.81-3.14-2.49-5.24-.68-2.1-1.4-4.09-2.17-5.97-1.01-2.44-2.25-4.11-3.73-4.99-1.48-.88-3.55-.98-6.23-.31l-10.68,2.71,4.81,18.99-10.68,2.71-12.31-48.58,26.19-6.63ZM278.16,58.98c2.45-.62,4.15-1.63,5.1-3.03.95-1.4,1.11-3.32.5-5.77-.6-2.36-1.65-3.92-3.14-4.67-1.49-.76-3.47-.82-5.92-.2l-11.7,2.96,3.46,13.68,11.7-2.96Z"/>
      <path class="cls-1" d="M299.88,30.67l12.31-1.01,13.31,18.77,9.98-20.68,12.25-1.01-16.01,32.3,1.58,19.17-10.98.9-1.6-19.45-20.84-28.99Z"/>
      <path class="cls-1" d="M401.26,31.37l4.92,36.07.13.03,17.48-31.71,15.22,2.97-9.58,49.19-10.13-1.97,6.79-34.86-.14-.03-18.85,32.51-8.34-1.62-5.33-36.86-.14-.03-6.72,34.52-10.13-1.97,9.58-49.19,15.23,2.96Z"/>
      <path class="cls-1" d="M465.95,48.8l-17.06,47.12-10.36-3.75,17.06-47.12,10.36,3.75Z"/>
      <path class="cls-1" d="M491.67,59.77l2.96,39.49.12.06,15.58-29.79,9.15,4.78-23.22,44.41-9.76-5.1-2.93-39.39-.13-.07-15.54,29.73-9.14-4.78,23.22-44.41,9.7,5.07Z"/>
      <path class="cls-1" d="M552.35,98.06c2.53,2,4.57,4.27,6.12,6.81,1.54,2.53,2.48,5.24,2.79,8.12.32,2.88-.03,5.88-1.05,9.01-1.02,3.13-2.82,6.33-5.4,9.6-2.27,2.86-4.73,5.21-7.38,7.05-2.65,1.84-5.41,3.06-8.3,3.64-2.88.58-5.83.5-8.85-.24-3.01-.75-6.03-2.31-9.04-4.69l-16.96-13.42,31.1-39.3,16.96,13.41ZM526.4,129.61c1.24.99,2.61,1.75,4.11,2.27,1.49.52,3.07.68,4.73.47,1.66-.21,3.36-.85,5.1-1.92,1.74-1.07,3.46-2.69,5.18-4.85,1.57-1.98,2.79-3.92,3.67-5.83.88-1.9,1.32-3.77,1.35-5.6.02-1.83-.46-3.63-1.43-5.38-.97-1.76-2.52-3.47-4.65-5.16l-6.16-4.88-19.6,24.77,7.72,6.09Z"/>
      <path class="cls-1" d="M608.6,154.93l-21.27,29.55.08.11,34.5-10.96,9,12.63-40.81,29.08-5.99-8.4,28.92-20.61-.08-.11-36.05,10.61-4.93-6.92,21.51-30.41-.08-.11-28.64,20.4-5.99-8.4,40.81-29.08,9.01,12.63Z"/>
      <path class="cls-1" d="M650.14,226.75l-38.29,37.37-4.62-10.47,8.68-7.97-7.56-17.15-11.8.91-4.48-10.15,53.51-2.88,4.55,10.34ZM622.26,239.74l14.28-13.2-.06-.13-19.46,1.45,5.24,11.88Z"/>
      <path class="cls-1" d="M648.99,247.88l8.92-2.49,11.03,39.55-8.93,2.49-4.03-14.47-39.36,10.96-2.96-10.61,39.35-10.97-4.03-14.47Z"/>
      <path class="cls-1" d="M661.22,294.96l9.18-1.21,5.39,40.71-9.18,1.22-1.97-14.89-40.5,5.36-1.45-10.92,40.5-5.36-1.97-14.89Z"/>
      <path class="cls-1" d="M674.28,386.77l-9.25-.4,1.15-26.44-10.73-.46-1.05,24.26-8.55-.37,1.05-24.26-12.27-.53-1.17,27-9.26-.4,1.65-38.01,50.07,2.18-1.62,37.44Z"/>
      <path class="cls-1" d="M666.26,429.95c-.49,2.19-1.29,4.09-2.38,5.69-1.1,1.6-2.41,2.89-3.92,3.87-1.52.98-3.16,1.62-4.92,1.92-1.78.3-3.59.24-5.47-.18-2.87-.64-5.23-1.8-7.06-3.48-1.84-1.68-2.99-4.01-3.48-7l-.14-.03c-.66,1.24-1.47,2.22-2.41,2.91-.95.7-2,1.21-3.15,1.53-1.14.32-2.36.47-3.65.44-1.29-.03-2.56-.13-3.82-.31-.79-.13-1.71-.29-2.76-.47-1.07-.19-2.16-.35-3.28-.48-1.12-.13-2.2-.18-3.23-.15-1.04.03-1.96.22-2.76.57l2.4-10.76c1.69-.25,3.62-.2,5.8.14,2.17.34,4.27.6,6.3.76,2.64.21,4.68-.15,6.14-1.08,1.45-.92,2.48-2.73,3.08-5.43l2.4-10.75-19.11-4.26,2.4-10.76,48.91,10.91-5.88,26.37ZM644.99,421.18c-.55,2.47-.41,4.44.4,5.92.82,1.48,2.46,2.49,4.93,3.04,2.37.53,4.24.3,5.59-.7,1.34-.99,2.3-2.72,2.84-5.19l2.63-11.78-13.76-3.07-2.63,11.78Z"/>
      <path class="cls-1" d="M619.3,454.41c-1.31.11-2.5.49-3.55,1.14-1.06.65-2.01,1.53-2.86,2.65-.85,1.12-1.55,2.34-2.1,3.68-.38.91-.71,1.91-.99,3.01-.28,1.1-.39,2.2-.34,3.28.05,1.09.33,2.09.83,3.01.51.92,1.34,1.62,2.51,2.11,1.25.52,2.43.55,3.54.07,1.12-.48,2.2-1.25,3.26-2.33,1.06-1.08,2.12-2.36,3.19-3.84,1.07-1.48,2.2-2.96,3.38-4.45,1.16-1.55,2.38-3.01,3.69-4.39,1.31-1.38,2.73-2.51,4.27-3.39,1.53-.88,3.21-1.41,5.03-1.59,1.83-.18,3.79.18,5.91,1.06,2.37.99,4.23,2.36,5.55,4.1,1.32,1.74,2.22,3.68,2.7,5.81.48,2.13.58,4.34.27,6.65-.31,2.31-.89,4.5-1.75,6.57-1.01,2.42-2.25,4.63-3.72,6.63-1.47,2-3.16,3.61-5.09,4.83-1.93,1.22-4.05,1.95-6.35,2.18-2.3.23-4.8-.21-7.47-1.33l4.11-9.84c1.42.49,2.69.67,3.8.56,1.11-.12,2.1-.48,2.96-1.08.86-.6,1.62-1.39,2.27-2.36.66-.97,1.25-2.08,1.77-3.33.34-.82.59-1.68.77-2.57.17-.89.18-1.76.02-2.61-.16-.85-.47-1.62-.93-2.33-.46-.7-1.2-1.26-2.19-1.68-.9-.38-1.71-.51-2.42-.4-.7.11-1.51.57-2.41,1.39-.9.82-1.95,2.02-3.18,3.61-1.23,1.6-2.81,3.69-4.74,6.27-.54.79-1.35,1.86-2.44,3.2-1.09,1.35-2.46,2.56-4.08,3.66-1.62,1.1-3.49,1.85-5.61,2.26-2.13.41-4.48.07-7.08-1.01-2.11-.88-3.9-2.11-5.38-3.69-1.47-1.58-2.53-3.45-3.17-5.62-.64-2.17-.83-4.6-.56-7.31.26-2.7,1.05-5.63,2.37-8.78,1.06-2.55,2.41-4.89,4.04-7.02,1.62-2.14,3.49-3.84,5.59-5.12,2.1-1.28,4.42-2.02,6.94-2.24,2.53-.21,5.21.29,8.04,1.53l-4.11,9.84c-1.55-.65-2.99-.92-4.3-.8Z"/>
      <path class="cls-1" d="M596.87,539.63c-2.39-1.69-3.84-3.9-4.33-6.62-.5-2.73.12-5.31,1.85-7.76,1.72-2.44,3.95-3.89,6.68-4.34,2.73-.45,5.29.17,7.69,1.85,2.44,1.73,3.9,3.94,4.37,6.65s-.16,5.28-1.88,7.73c-1.72,2.44-3.94,3.9-6.64,4.37-2.71.47-5.28-.16-7.73-1.89Z"/>
      <path class="cls-1" d="M557.42,604.19l-6.32-6.78,19.37-18.04-7.33-7.86-17.77,16.56-5.84-6.27,17.77-16.55-8.37-8.99-19.77,18.42-6.32-6.78,27.84-25.93,34.16,36.67-27.42,25.55Z"/>
      <path class="cls-1" d="M507.81,578.36l41.26,32.74-9.41,6.26-28.81-23.15-.12.08,10.12,35.59-9.47,6.3-13.92-50.94,10.35-6.89Z"/>
      <path class="cls-1" d="M466,657.33l-3.8-8.45,24.13-10.87-4.41-9.79-22.14,9.97-3.52-7.8,22.15-9.98-5.05-11.2-24.64,11.1-3.8-8.45,34.68-15.62,20.58,45.7-34.18,15.39Z"/>
      <path class="cls-1" d="M423.87,669.57c-2.18.55-4.23.7-6.16.44-1.92-.26-3.66-.85-5.22-1.76-1.56-.91-2.87-2.09-3.93-3.53s-1.83-3.1-2.3-4.96c-.72-2.86-.74-5.48-.07-7.87.68-2.39,2.24-4.47,4.69-6.25l-.03-.14c-1.41-.03-2.64-.31-3.69-.84-1.05-.53-1.97-1.24-2.78-2.12-.8-.88-1.49-1.91-2.04-3.07-.56-1.16-1.03-2.35-1.44-3.55-.24-.76-.52-1.66-.83-2.69-.31-1.03-.66-2.08-1.05-3.14-.39-1.06-.83-2.05-1.32-2.96-.5-.92-1.08-1.65-1.75-2.2l10.68-2.7c.98,1.39,1.8,3.14,2.48,5.24.68,2.1,1.4,4.09,2.16,5.97,1.01,2.45,2.24,4.11,3.72,5,1.48.88,3.56.98,6.23.31l10.68-2.7-4.79-18.99,10.68-2.7,12.27,48.59-26.2,6.61ZM422.13,646.63c-2.45.62-4.15,1.63-5.1,3.03-.95,1.4-1.12,3.32-.5,5.77.6,2.36,1.64,3.92,3.13,4.68,1.5.76,3.47.83,5.92.21l11.71-2.96-3.46-13.68-11.7,2.96Z"/>
      <path class="cls-1" d="M400.14,674.96l-12.31.99-13.27-18.79-10.03,20.67-12.24.99,16.05-32.28-1.54-19.17,10.99-.88,1.57,19.45,20.79,29.03Z"/>
      <path class="cls-1" d="M298.78,674.09l-4.85-36.08-.14-.03-17.53,31.68-15.22-2.99,9.66-49.18,10.12,1.99-6.84,34.85.13.03,18.9-32.48,8.34,1.64,5.27,36.87.13.03,6.78-34.51,10.13,1.99-9.66,49.18-15.22-2.99Z"/>
      <path class="cls-1" d="M234.12,656.57l17.13-47.1,10.35,3.77-17.13,47.1-10.35-3.77Z"/>
      <path class="cls-1" d="M208.41,645.56l-2.89-39.49-.13-.07-15.62,29.77-9.14-4.79,23.29-44.38,9.76,5.12,2.87,39.39.12.07,15.6-29.71,9.14,4.79-23.29,44.37-9.7-5.09Z"/>
      <path class="cls-1" d="M147.99,607.34c-2.53-2.01-4.57-4.28-6.11-6.81-1.54-2.54-2.47-5.24-2.79-8.12-.31-2.88.04-5.88,1.06-9.02,1.02-3.13,2.82-6.33,5.41-9.59,2.27-2.86,4.73-5.21,7.38-7.05,2.65-1.84,5.41-3.05,8.3-3.64,2.87-.59,5.82-.5,8.84.25,3.02.75,6.03,2.31,9.04,4.7l16.95,13.42-31.12,39.28-16.94-13.42ZM173.95,575.8c-1.25-.99-2.62-1.75-4.11-2.27-1.49-.53-3.07-.68-4.73-.48-1.66.21-3.36.85-5.1,1.91-1.74,1.07-3.47,2.68-5.18,4.85-1.57,1.98-2.8,3.92-3.68,5.83-.88,1.9-1.33,3.77-1.35,5.6-.02,1.83.45,3.63,1.42,5.38.97,1.76,2.52,3.47,4.65,5.16l6.16,4.88,19.61-24.76-7.7-6.1Z"/>
      <path class="cls-1" d="M91.63,550.23l21.31-29.51-.08-.11-34.52,10.92-8.98-12.65,40.86-29.02,5.97,8.41-28.96,20.57.08.11,36.07-10.55,4.92,6.92-21.56,30.37.08.11,28.67-20.36,5.98,8.41-40.86,29.02-8.98-12.64Z"/>
      <path class="cls-1" d="M50.3,478.55l38.32-37.34,4.61,10.47-8.69,7.96,7.55,17.15,11.8-.9,4.46,10.16-53.51,2.84-4.55-10.35ZM78.18,465.59l-14.29,13.19.06.13,19.46-1.43-5.23-11.89Z"/>
      <path class="cls-1" d="M51.36,457.19l-8.93,2.47-10.96-39.57,8.93-2.47,4.01,14.48,39.36-10.9,2.94,10.62-39.37,10.9,4.01,14.48Z"/>
      <path class="cls-1" d="M38.45,408.9l-9.22.92-4.06-40.86,9.22-.92,1.49,14.95,40.65-4.04,1.09,10.97-40.65,4.04,1.49,14.95Z"/>
      <path class="cls-1" d="M26.27,318.52l9.26.41-1.16,26.44,10.72.47,1.07-24.26,8.55.37-1.07,24.27,12.27.54,1.19-27,9.26.41-1.68,38-50.07-2.21,1.65-37.45Z"/>
      <path class="cls-1" d="M34.32,275.36c.49-2.19,1.28-4.09,2.39-5.69,1.1-1.6,2.41-2.89,3.92-3.87,1.51-.98,3.16-1.62,4.93-1.92,1.77-.3,3.59-.24,5.46.18,2.88.64,5.23,1.81,7.06,3.49,1.83,1.68,2.99,4.01,3.47,7l.14.03c.66-1.24,1.47-2.21,2.41-2.91.95-.7,1.99-1.21,3.14-1.53,1.15-.32,2.37-.47,3.66-.44,1.29.02,2.55.13,3.81.32.78.13,1.71.29,2.77.48,1.06.19,2.16.35,3.28.48,1.11.13,2.2.18,3.23.15,1.04-.03,1.96-.22,2.75-.57l-2.41,10.76c-1.69.25-3.62.2-5.79-.15-2.18-.34-4.28-.6-6.3-.76-2.64-.21-4.69.15-6.14,1.07-1.45.92-2.48,2.73-3.09,5.42l-2.41,10.75,19.11,4.28-2.4,10.75-48.9-10.95,5.9-26.37ZM55.59,284.14c.56-2.47.42-4.44-.4-5.92-.82-1.48-2.46-2.49-4.93-3.05-2.37-.53-4.23-.3-5.59.69-1.35.99-2.3,2.72-2.84,5.19l-2.64,11.78,13.77,3.08,2.63-11.78Z"/>
      <path class="cls-1" d="M81.29,250.94c1.32-.11,2.51-.49,3.56-1.14,1.06-.65,2.01-1.53,2.86-2.65.85-1.12,1.55-2.34,2.11-3.68.38-.91.71-1.91.99-3.01.28-1.1.4-2.2.34-3.28-.05-1.09-.33-2.09-.83-3.01-.5-.92-1.34-1.62-2.5-2.11-1.25-.52-2.44-.55-3.55-.07-1.1.47-2.19,1.25-3.25,2.33-1.06,1.08-2.13,2.36-3.2,3.83-1.07,1.48-2.2,2.96-3.37,4.45-1.16,1.55-2.39,3.01-3.7,4.39-1.31,1.38-2.73,2.5-4.27,3.39-1.53.88-3.22,1.41-5.03,1.58-1.83.18-3.8-.18-5.91-1.06-2.37-.99-4.22-2.36-5.55-4.11-1.32-1.75-2.23-3.68-2.7-5.81-.48-2.13-.57-4.34-.26-6.65.31-2.31.89-4.5,1.76-6.57,1.01-2.42,2.25-4.62,3.72-6.62,1.47-2,3.17-3.61,5.1-4.83,1.92-1.22,4.04-1.95,6.34-2.18,2.3-.23,4.8.22,7.47,1.33l-4.11,9.84c-1.42-.49-2.69-.68-3.8-.56-1.11.12-2.1.48-2.96,1.08-.86.6-1.62,1.39-2.28,2.36-.66.97-1.25,2.08-1.77,3.33-.34.82-.6,1.68-.77,2.57-.17.89-.18,1.76-.03,2.61.15.85.46,1.63.93,2.33.47.7,1.2,1.26,2.19,1.68.91.38,1.72.52,2.42.4.7-.11,1.5-.57,2.4-1.39.9-.81,1.96-2.02,3.18-3.61,1.23-1.59,2.81-3.68,4.75-6.27.54-.79,1.35-1.86,2.44-3.2,1.09-1.34,2.45-2.56,4.07-3.66,1.63-1.1,3.5-1.85,5.62-2.25,2.12-.41,4.48-.07,7.07,1.01,2.11.89,3.91,2.12,5.38,3.7,1.47,1.58,2.53,3.45,3.16,5.62.64,2.17.83,4.61.56,7.31-.27,2.71-1.06,5.63-2.38,8.78-1.07,2.55-2.42,4.89-4.04,7.02-1.62,2.14-3.49,3.84-5.6,5.12-2.1,1.28-4.41,2.02-6.94,2.24-2.52.21-5.2-.3-8.03-1.53l4.12-9.84c1.55.65,2.98.92,4.3.81Z"/>
    </g>
    <path class="cls-1" d="M101.38,190.52l-6.01,6.67-6.66-8.35,7.99-4.44-8.23-3.66,5.89-8.91,6.68,6.23.93-8.94,10.3,2.84-3.85,8.29,8.8-1.89.48,10.68-9.07-1.11,4.51,7.81-10.01,3.75-1.75-8.97Z"/>
  </g>
  <g>
    <g>
      <path class="cls-1" d="M317.11,341.88c4.1-1.23,7.58-4.11,9.57-7.9,4.1-7.82,1.07-17.51-6.75-21.61l-2.93-1.54-.26-3.3c-.62-7.92-5.43-15.02-12.56-18.52-5.14-2.52-10.98-3-16.45-1.35-6.08,1.83-10.98,5.98-13.78,11.68l-2,4.09-4.48-.84c-1.13-.21-2.29-.33-3.44-.34-2.01-.02-4,.27-5.9.84-8.42,2.53-14.13,10.15-14.2,18.96-.09,11.01,8.8,20.03,19.8,20.13l48.64.39c1.61.01,3.21-.21,4.75-.68h0Z"/>
      <path class="cls-1" d="M395.63,341.88c-4.1-1.23-7.58-4.11-9.57-7.9-4.1-7.82-1.07-17.51,6.75-21.61l2.93-1.54.26-3.3c.62-7.92,5.43-15.02,12.56-18.52,5.14-2.52,10.98-3,16.45-1.35,6.08,1.83,10.98,5.98,13.78,11.68l2,4.09,4.48-.84c1.13-.21,2.29-.33,3.44-.34,2.01-.02,4,.27,5.9.84,8.42,2.53,14.13,10.15,14.2,18.96.09,11.01-8.8,20.03-19.8,20.13l-48.64.39c-1.61.01-3.21-.21-4.75-.68h0Z"/>
      <g>
        <path class="cls-1" d="M355.63,224.51h0c-34.85,0-65.18,23.77-73.98,56.02,1.15-.5,2.32-.95,3.54-1.32,2.94-.88,5.99-1.33,9.04-1.33,1.02,0,2.04.08,3.06.18,9.04-23.53,31.9-39.63,58.39-39.63s49.46,16.17,58.45,39.8c1.46-.21,2.92-.35,4.38-.35,3.06,0,6.1.45,9.04,1.33.68.2,1.33.46,1.99.7-9.1-31.96-39.3-55.4-73.91-55.4Z"/>
        <path class="cls-1" d="M355.63,246.17c-22.77,0-42.51,13.62-50.67,33.63,1.05.38,2.09.81,3.09,1.3,3.44,1.69,6.47,3.99,9.03,6.72,5.24-16.04,20.52-27.69,38.56-27.69s34.11,12.27,38.93,28.97c2.76-3.29,6.17-6.06,10.12-8.01.59-.29,1.21-.51,1.81-.76-8.01-20.31-27.91-34.16-50.87-34.16Z"/>
        <path class="cls-1" d="M355.63,202.9c-52.45,0-95.46,40.49-98.45,91.39,2.19-.52,4.42-.86,6.68-.86,1.11.01,2.15.07,3.14.18,1.46-2.55,3.25-4.83,5.29-6.83,6.51-39.67,41.98-69.96,83.32-69.96s75.92,29.53,83.12,68.46c2.76,2.33,5.13,5.12,6.98,8.34,1-.11,2.03-.17,3.14-.18,1.76,0,3.5.22,5.21.53-3.2-50.77-46.13-91.06-98.45-91.06Z"/>
      </g>
    </g>
    <path class="cls-1" d="M313.64,490.9c-.06,3.43-.15,6.86-.21,10.29-.13,5.93-.28,11.15-.44,15.7h112.18c-2.85-15.41-6.3-36.08-8.37-55.48-.93-8.64,2.08-17.23,8.17-23.42,1.37-1.4,2.77-2.82,4.16-4.22,17.91-18.19,30.61-54,37.11-78.31h-221.14c-4.87,12.56-9.74,38.5-14.61,51.06-1.98,4.99,1.86,10.47,7.24,10.31l17.15-.42c1.72-.04,3.25,1.39,3.29,3.14l1.14,46.03c.22,9.1,7.8,16.32,16.9,16.07l27.49-.68c5.55-.12,10.05,4.38,9.94,9.93Z"/>
  </g>
</svg>