<?xml version="1.0" encoding="UTF-8"?>
<svg id="Layer_1" data-name="Layer 1" xmlns="http://www.w3.org/2000/svg" viewBox="0 0 700.52 705.55">
  <defs>
    <style>
      .cls-1 {
        fill: #623d3c;
        fill-rule: evenodd;
      }
    </style>
  </defs>
  <path class="cls-1" d="M354.93,116.53c-172.32,0-312.01,105.54-312.01,235.74,0,64.09,33.96,122.12,88.89,164.62l-3.82,100.99,94.15-49.71s81.03,19.84,132.79,19.84c172.32,0,312.01-105.54,312.01-235.74s-139.69-235.74-312.01-235.74ZM222.5,386.54c-19.32,0-34.98-15.66-34.98-34.98s15.66-34.98,34.98-34.98,34.98,15.66,34.98,34.98-15.66,34.98-34.98,34.98ZM354.93,386.54c-19.32,0-34.98-15.66-34.98-34.98s15.66-34.98,34.98-34.98,34.98,15.66,34.98,34.98-15.66,34.98-34.98,34.98ZM487.36,386.54c-19.32,0-34.98-15.66-34.98-34.98s15.66-34.98,34.98-34.98,34.98,15.66,34.98,34.98-15.66,34.98-34.98,34.98Z"/>
</svg>