<?xml version="1.0" encoding="UTF-8"?>
<svg id="Layer_1" data-name="Layer 1" xmlns="http://www.w3.org/2000/svg" viewBox="0 0 700.52 705.55">
  <defs>
    <style>
      .cls-1 {
        fill: #fff;
      }
    </style>
  </defs>
  <path class="cls-1" d="M563.22,500.59h46.38v29.08h-46.38v-29.08ZM428.51,369.99h46.38v29.08h-46.38v-29.08ZM320.51,369.99h46.38v29.08h-46.38v-29.08ZM212.51,369.99h46.38v29.08h-46.38v-29.08ZM183.86,420.48h319.79v109.19H183.86v-109.19ZM77.92,500.59h46.38v29.08h-46.38v-29.08ZM51.11,551.18h282.16v109.19H51.11v-109.19ZM354.24,660.37v-109.19h282.16v109.19h-282.16Z"/>
  <path class="cls-1" d="M573.05,165.45l45.41,9.84-5.84,28.43-45.41-9.84,5.84-28.43ZM467.32,142.53l45.41,9.84-5.84,28.43-45.41-9.84,5.84-28.43ZM361.69,119.61l45.41,9.84-5.84,28.43-45.41-9.84,5.84-28.43ZM323.42,162.96l312.87,67.89-21.84,106.82-312.87-67.79,21.84-106.92Z"/>
</svg>