<?xml version="1.0" encoding="UTF-8"?>
<svg id="Layer_1" data-name="Layer 1" xmlns="http://www.w3.org/2000/svg" viewBox="0 0 700.52 705.55">
  <defs>
    <style>
      .cls-1 {
        fill: #fff;
      }
    </style>
  </defs>
  <path class="cls-1" d="M672.75,356.25c.73-48.47-32.79-88.89-97.92-95.88,44.38-50.34,41.34-103.65,7.15-138.88-34.38-35.43-87.98-39.96-139.87,3.64-5.55-64.34-44.69-98.52-92.76-99.24-48.75-.74-89.38,33.15-96.03,99.04-47.6-36.48-96.72-31.85-129.85.31-34.35,33.33-39.5,84.71-.07,135.1-62,6.69-94.92,45.25-95.62,92.42-.71,46.9,30.65,86.26,91.69,95.11-41.68,49.45-38.19,101.35-4.68,135.89,34.05,35.1,86.96,39.8,138.39-2.49,5.82,63.79,44.82,97.68,92.68,98.4,48.97.74,89.76-33.44,96.14-99.9,49.21,40.96,100.73,37.34,135.08,4.01,34.35-33.33,39.51-84.71.07-135.1,62-6.69,94.92-45.25,95.62-92.42ZM350.26,494.38c-78.21,0-141.61-63.4-141.61-141.61s63.4-141.6,141.61-141.6,141.6,63.4,141.6,141.6-63.4,141.61-141.6,141.61Z"/>
</svg>