<?xml version="1.0" encoding="UTF-8"?>
<svg id="Layer_1" data-name="Layer 1" xmlns="http://www.w3.org/2000/svg" viewBox="0 0 700.52 705.55">
  <defs>
    <style>
      .cls-1 {
        fill: #623d3c;
      }
    </style>
  </defs>
  <circle class="cls-1" cx="352.32" cy="354.52" r="210.22"/>
  <g>
    <path class="cls-1" d="M591.88,404.9c20.42,17.45,38.94,38.33,55.04,62.32-3.51.89-7,1.71-10.47,2.49-3.5.76-6.86,1.52-10.42,2.13-7.02,1.26-13.96,2.3-20.79,3.13-13.93,1.54-27.43,2.25-40.95,1.89,3.33-5.53,6.17-11.34,9.07-17.1l3.99-8.82c.71-1.45,1.21-2.99,1.83-4.48l1.77-4.5c4.55-12.06,8.3-24.44,10.94-37.07Z"/>
    <path class="cls-1" d="M534.59,517.85c8.87,25.31,14.53,52.73,16.51,81.53-6.98-1.99-13.78-4.14-20.4-6.43-6.71-2.41-13.27-5-19.61-7.7l-4.73-2.06-4.73-2.21c-3.13-1.49-6.21-3.01-9.24-4.57-3.04-1.56-6-3.12-8.95-4.77-2.98-1.69-5.9-3.4-8.77-5.15l4.2-2.41c1.38-.84,2.72-1.74,4.08-2.6l4.08-2.61,2.04-1.3,1.97-1.4,7.89-5.62,7.62-5.99c10-8.19,19.38-17.12,28.04-26.71Z"/>
    <path class="cls-1" d="M428.51,587.14l-.96,4.99-.51,2.5-.55,2.45c-.75,3.27-1.55,6.56-2.41,9.86-.86,3.3-1.78,6.63-2.75,9.96-.48,1.68-.99,3.33-1.52,4.95l-1.62,4.9c-1.11,3.28-2.28,6.57-3.5,9.87l-1.88,4.96-.97,2.49-1.01,2.42c-2.71,6.47-5.66,12.98-8.84,19.52-20.14-20.73-36.72-43.28-49.67-66.71,12.95-.12,25.86-1.12,38.62-3.06l9.53-1.7,1.19-.21,1.18-.27,2.36-.55,4.71-1.09,2.36-.54c.79-.17,1.57-.36,2.34-.6l4.65-1.33,4.65-1.31,1.16-.33,1.14-.39,2.29-.78Z"/>
    <path class="cls-1" d="M301.95,594.09c-17.45,20.42-38.33,38.94-62.32,55.04-.89-3.51-1.71-7-2.49-10.47-.76-3.5-1.52-6.86-2.13-10.42-1.26-7.02-2.3-13.96-3.13-20.79-1.54-13.93-2.25-27.43-1.89-40.95,5.53,3.33,11.34,6.17,17.1,9.07l8.82,3.99c1.45.71,2.99,1.21,4.48,1.83l4.5,1.77c12.06,4.55,24.44,8.3,37.07,10.94Z"/>
    <path class="cls-1" d="M189,536.79c-25.3,8.87-52.73,14.53-81.53,16.51,1.99-6.98,4.14-13.78,6.43-20.4,2.41-6.71,5-13.27,7.7-19.61l2.06-4.73,2.21-4.73c1.49-3.13,3.01-6.21,4.57-9.24,1.56-3.04,3.12-6,4.77-8.95,1.69-2.98,3.4-5.9,5.15-8.77l2.41,4.2c.84,1.38,1.74,2.72,2.6,4.08l2.61,4.08,1.3,2.04,1.4,1.97,5.62,7.89,5.99,7.62c8.19,10,17.12,19.38,26.71,28.04Z"/>
    <path class="cls-1" d="M119.7,430.72l-4.99-.96-2.5-.51-2.45-.55c-3.27-.75-6.56-1.55-9.86-2.41s-6.63-1.78-9.96-2.75c-1.68-.48-3.33-.99-4.95-1.52l-4.9-1.62c-3.28-1.11-6.57-2.28-9.87-3.5l-4.96-1.88-2.49-.97-2.42-1.01c-6.47-2.71-12.98-5.66-19.52-8.84,20.73-20.14,43.28-36.72,66.71-49.67.11,12.95,1.12,25.86,3.06,38.62l1.7,9.53.21,1.19.27,1.18.55,2.36,1.09,4.71.54,2.36c.17.79.36,1.57.6,2.34l1.33,4.65,1.31,4.65.33,1.16.39,1.15.78,2.29Z"/>
    <path class="cls-1" d="M112.75,304.15c-20.42-17.45-38.94-38.33-55.04-62.32,3.51-.89,7-1.72,10.47-2.49,3.5-.76,6.86-1.52,10.42-2.13,7.02-1.26,13.96-2.3,20.79-3.13,13.93-1.54,27.43-2.25,40.95-1.89-3.33,5.53-6.17,11.34-9.07,17.1l-3.99,8.82c-.71,1.45-1.21,2.99-1.83,4.48l-1.77,4.5c-4.55,12.06-8.3,24.44-10.94,37.07Z"/>
    <path class="cls-1" d="M170.05,191.2c-8.87-25.3-14.53-52.73-16.51-81.53,6.98,1.99,13.78,4.14,20.4,6.43,6.71,2.41,13.27,5,19.61,7.7l4.73,2.06,4.73,2.21c3.13,1.49,6.21,3.01,9.24,4.57,3.04,1.56,6,3.12,8.95,4.77,2.98,1.69,5.9,3.4,8.77,5.15l-4.2,2.41c-1.38.84-2.72,1.74-4.08,2.6l-4.08,2.61-2.04,1.3-1.97,1.4-7.89,5.62-7.62,5.99c-10,8.19-19.38,17.12-28.04,26.71Z"/>
    <path class="cls-1" d="M276.12,121.91l.96-4.99.51-2.5.55-2.45c.75-3.27,1.55-6.56,2.41-9.86.86-3.3,1.78-6.63,2.75-9.96.48-1.68.99-3.33,1.52-4.95l1.62-4.9c1.11-3.28,2.28-6.57,3.5-9.87l1.88-4.96.97-2.49,1.01-2.42c2.71-6.47,5.66-12.98,8.84-19.51,20.14,20.73,36.72,43.28,49.67,66.71-12.95.12-25.86,1.12-38.62,3.06l-9.53,1.7-1.19.21-1.18.27-2.36.55-4.71,1.09-2.36.54c-.79.17-1.57.36-2.34.6l-4.65,1.33-4.65,1.31-1.16.33-1.14.39-2.29.78Z"/>
    <path class="cls-1" d="M402.69,114.96c17.45-20.42,38.33-38.94,62.32-55.04.89,3.51,1.71,7,2.49,10.47.76,3.5,1.52,6.86,2.13,10.42,1.26,7.02,2.3,13.96,3.13,20.79,1.54,13.93,2.25,27.43,1.89,40.95-5.53-3.33-11.34-6.17-17.1-9.07l-8.82-3.99c-1.45-.71-2.99-1.21-4.48-1.83l-4.5-1.77c-12.06-4.55-24.44-8.3-37.07-10.94Z"/>
    <path class="cls-1" d="M515.64,172.26c25.3-8.87,52.73-14.53,81.53-16.51-1.99,6.98-4.14,13.78-6.43,20.4-2.41,6.71-5,13.27-7.7,19.61l-2.06,4.73-2.21,4.73c-1.49,3.13-3.01,6.21-4.57,9.24-1.56,3.04-3.12,6-4.77,8.95-1.69,2.98-3.4,5.9-5.15,8.77l-2.41-4.2c-.84-1.38-1.74-2.72-2.6-4.08l-2.61-4.08-1.3-2.04-1.4-1.97-5.62-7.89-5.99-7.62c-8.19-10-17.12-19.38-26.71-28.04Z"/>
    <path class="cls-1" d="M584.93,278.33l4.99.96,2.5.51,2.45.55c3.27.75,6.56,1.55,9.86,2.41s6.63,1.78,9.96,2.75c1.68.48,3.33.99,4.95,1.52l4.9,1.62c3.28,1.11,6.57,2.28,9.87,3.5l4.96,1.88,2.49.97,2.42,1.01c6.47,2.71,12.98,5.66,19.52,8.84-20.73,20.14-43.28,36.72-66.71,49.67-.11-12.95-1.12-25.86-3.06-38.62l-1.7-9.53-.21-1.19-.27-1.18-.55-2.36-1.09-4.71-.54-2.36c-.17-.79-.36-1.57-.6-2.34l-1.33-4.65-1.31-4.65-.33-1.16-.39-1.14-.78-2.29Z"/>
  </g>
</svg>