<?xml version="1.0" encoding="UTF-8"?>
<svg id="Layer_1" data-name="Layer 1" xmlns="http://www.w3.org/2000/svg" viewBox="0 0 700.52 705.55">
  <defs>
    <style>
      .cls-1 {
        fill: #fff;
        fill-rule: evenodd;
      }
    </style>
  </defs>
  <path class="cls-1" d="M428.68,541.17c-34.46,38.2-61.53,62.77-64.67,65.6l-21.3,19.13-21.29-19.13c-3.11-2.8-29.65-26.88-63.59-64.4-106.01,9.95-181.86,36.53-181.86,67.75,0,39.73,122.8,71.94,274.28,71.94s274.28-32.21,274.28-71.94c0-32.58-82.6-60.1-195.86-68.95Z"/>
  <path class="cls-1" d="M342.71,10.83c-110.92,0-200.83,69.57-200.83,223.81s200.83,334.74,200.83,334.74c0,0,200.83-180.5,200.83-334.74S453.62,10.83,342.71,10.83ZM344.94,350.72c-72.08,0-130.51-58.43-130.51-130.51s58.43-130.51,130.51-130.51,130.51,58.43,130.51,130.51-58.43,130.51-130.51,130.51Z"/>
</svg>