<?xml version="1.0" encoding="UTF-8"?>
<svg id="Layer_1" data-name="Layer 1" xmlns="http://www.w3.org/2000/svg" viewBox="0 0 700.52 705.55">
  <defs>
    <style>
      .cls-1 {
        fill-rule: evenodd;
      }

      .cls-1, .cls-2 {
        fill: #fff;
      }
    </style>
  </defs>
  <path class="cls-2" d="M528.39,81.18l-93.29,93.29c6.71,16.17,10.36,33.37,10.36,51.21,0,94.41-101.29,170.94-226.24,170.94-2.04,0-4.01-.19-6.04-.23l-65.09,65.09-23.79,166.53,161.58-28.74,380.3-380.29-137.79-137.79Z"/>
  <path class="cls-1" d="M221.76,77.55c-103.51,0-187.42,63.4-187.42,141.61,0,38.5,20.4,73.36,53.39,98.89l-2.29,60.67,56.56-29.86s48.68,11.92,79.76,11.92c103.51,0,187.42-63.4,187.42-141.61s-83.91-141.61-187.42-141.61ZM124.53,239.72c-11.03,0-19.96-8.94-19.96-19.96s8.94-19.96,19.96-19.96,19.96,8.94,19.96,19.96-8.94,19.96-19.96,19.96ZM220.55,239.72c-11.02,0-19.96-8.94-19.96-19.96s8.94-19.96,19.96-19.96,19.96,8.94,19.96,19.96-8.94,19.96-19.96,19.96ZM316.58,239.72c-11.02,0-19.96-8.94-19.96-19.96s8.94-19.96,19.96-19.96,19.96,8.94,19.96,19.96-8.94,19.96-19.96,19.96Z"/>
</svg>