<?xml version="1.0" encoding="UTF-8"?>
<svg id="Layer_1" data-name="Layer 1" xmlns="http://www.w3.org/2000/svg" viewBox="0 0 700.52 705.55">
  <defs>
    <style>
      .cls-1 {
        fill: none;
        stroke-width: 35.31px;
      }

      .cls-1, .cls-2 {
        stroke: #fff;
        stroke-miterlimit: 10;
      }

      .cls-2 {
        fill: #fff;
      }
    </style>
  </defs>
  <g>
    <path class="cls-1" d="M525.27,287.91c37.83,44.34,67.32,89.74,86.98,132.47,34.89,75.88,38.77,143.33,3.26,181.44-37.21,39.94-109.64,38.99-192.57,5.07-62.25-25.46-130.42-69.51-194.04-128.8"/>
    <polygon class="cls-2" points="633.02 305.83 504.4 265.89 518.89 398.28 633.02 305.83"/>
    <polygon class="cls-2" points="71.2 404.3 199.82 444.24 185.32 311.85 71.2 404.3"/>
  </g>
  <path class="cls-1" d="M175.25,417.65c-37.83-44.34-67.32-89.74-86.98-132.47-34.89-75.88-38.77-143.33-3.26-181.44,37.21-39.94,109.64-38.99,192.57-5.07,62.25,25.46,130.42,69.51,194.04,128.8"/>
</svg>