<?xml version="1.0" encoding="UTF-8"?>
<svg id="Layer_1" data-name="Layer 1" xmlns="http://www.w3.org/2000/svg" viewBox="0 0 700.52 705.55">
  <defs>
    <style>
      .cls-1, .cls-2, .cls-3, .cls-4 {
        fill: none;
        stroke: #6c95c0;
        stroke-miterlimit: 10;
        stroke-width: 12.16px;
      }

      .cls-1, .cls-4 {
        stroke-linecap: round;
      }

      .cls-2, .cls-4 {
        fill-rule: evenodd;
      }

      .cls-5 {
        fill: #f2f2f2;
      }

      .cls-6 {
        fill: #6c95c0;
      }
    </style>
  </defs>
  <path class="cls-3" d="M281.67,112.95h135.53c90.25,0,163.51,73.27,163.51,163.51v296.75c0,48.27-39.19,87.46-87.46,87.46H207.26c-48.27,0-87.46-39.19-87.46-87.46v-298.39c0-89.34,72.53-161.88,161.88-161.88Z"/>
  <path class="cls-4" d="M194.21,266.45c14.23-49.37,58.04-85.57,109.52-85.57h95.76c52.57,0,97.22,37.37,111.09,88.08"/>
  <path class="cls-6" d="M347.19,44.88c-40.11,0-74.52,26.62-89.26,64.58h175.32c-14.74-37.95-45.95-64.58-86.06-64.58Z"/>
  <path class="cls-5" d="M346.24,83.09c-16.15,0-30,8.57-35.94,20.78h70.58c-5.93-12.21-18.5-20.78-34.65-20.78Z"/>
  <path class="cls-6" d="M179.5,414.44h338.75v153.18c0,17.65-14.33,31.97-31.97,31.97H222.44c-23.7,0-42.94-19.24-42.94-42.94v-142.21h0Z"/>
  <line class="cls-1" x1="188.78" y1="373.13" x2="514.65" y2="373.13"/>
  <path class="cls-2" d="M121.8,246.05V87.62c0-12.61,10.22-22.83,22.83-22.83h56.03c11.25,0,20.37,9.12,20.37,20.37v43.56"/>
  <path class="cls-2" d="M578.92,254.2V87.62c0-12.61-10.22-22.83-22.83-22.83h-55.92c-11.25,0-20.37,9.12-20.37,20.37v43.56"/>
</svg>