<?xml version="1.0" encoding="UTF-8"?>
<svg id="Layer_1" data-name="Layer 1" xmlns="http://www.w3.org/2000/svg" viewBox="0 0 700.52 705.55">
  <defs>
    <style>
      .cls-1 {
        fill-rule: evenodd;
      }

      .cls-1, .cls-2 {
        fill: #623d3c;
      }
    </style>
  </defs>
  <path class="cls-1" d="M407.05,643.76l21.57-50.56h-169.71l21.57,50.56c4.2,9.87,13.05,15.74,23.85,15.74h78.86c10.81,0,19.65-5.83,23.85-15.74h0Z"/>
  <path class="cls-1" d="M253.02,595.65h181.48c13.83,0,21.28-18.5,11.17-29.5-2.87-3.13-6.83-5.1-11.17-5.1h-181.48c-13.83,0-21.28,18.5-11.17,29.5,2.87,3.16,6.83,5.1,11.17,5.1Z"/>
  <path class="cls-1" d="M244.65,504.92c-15.11,0-23.24,18.46-12.2,29.5,3.13,3.13,7.46,5.1,12.2,5.1h198.23c15.11,0,23.24-18.5,12.2-29.5-3.13-3.13-7.46-5.1-12.2-5.1h-198.23Z"/>
  <g>
    <path class="cls-2" d="M558.11,250.43c0-118.4-95.97-214.18-214.35-214.18s-214.34,95.78-214.34,214.18,64.43,133.93,107.46,231.58l207.06-.48c2.35,0,4.72.19,7.1.51,15.46-34.21,33.83-60.68,51.13-85.57,29.63-42.67,55.94-80.6,55.94-146.04ZM438.11,294.21c-35.64,32.51-71.39,63.02-88.63,77.67-29.92-25.44-59.67-51.21-88.68-77.67-41.45-37.8-27.08-106.41,24.87-112.71,19.42-2.37,41.4,7.31,59.61,36.16l4.17,6.65,4.2-6.65c18.43-29.23,39.38-39.21,57.76-37.25,49.5,5.29,66.73,77.28,26.7,113.8Z"/>
    <path class="cls-2" d="M451.07,482.03s-.02,0-.03,0c0,0,0,0,0,0h.03Z"/>
  </g>
</svg>