<?xml version="1.0" encoding="UTF-8"?>
<svg id="Layer_1" data-name="Layer 1" xmlns="http://www.w3.org/2000/svg" viewBox="0 0 700.52 705.55">
  <defs>
    <style>
      .cls-1 {
        fill: #623d3c;
      }
    </style>
  </defs>
  <path class="cls-1" d="M238.2,565.36c11.69-3.52,21.64-11.74,27.32-22.55,11.69-22.32,3.05-49.98-19.28-61.67l-8.37-4.39-.74-9.42c-1.77-22.62-15.51-42.87-35.86-52.86-14.66-7.19-31.34-8.56-46.95-3.87-17.37,5.22-31.34,17.06-39.32,33.33l-5.72,11.67-12.79-2.4c-3.23-.61-6.53-.93-9.81-.96-5.73-.04-11.41.77-16.85,2.4-24.05,7.23-40.34,28.98-40.54,54.12-.26,31.42,25.11,57.18,56.51,57.44l138.83,1.1c4.6.04,9.16-.61,13.56-1.93h0Z"/>
  <path class="cls-1" d="M462.32,565.36c-11.69-3.52-21.64-11.74-27.32-22.55-11.69-22.32-3.05-49.98,19.28-61.67l8.37-4.39.74-9.42c1.77-22.62,15.51-42.87,35.86-52.86,14.66-7.19,31.34-8.56,46.95-3.87,17.37,5.22,31.34,17.06,39.32,33.33l5.72,11.67,12.79-2.4c3.23-.61,6.53-.93,9.81-.96,5.73-.04,11.41.77,16.85,2.4,24.05,7.23,40.34,28.98,40.54,54.12.26,31.42-25.11,57.18-56.51,57.44l-138.83,1.1c-4.6.04-9.16-.61-13.56-1.93h0Z"/>
  <g>
    <path class="cls-1" d="M348.16,230.37h0c-99.48,0-186.05,67.86-211.16,159.91,3.27-1.42,6.61-2.72,10.09-3.77,8.39-2.52,17.08-3.81,25.82-3.81,2.91,0,5.82.22,8.73.51,25.79-67.17,91.05-113.11,166.65-113.11s141.18,46.15,166.84,113.6c4.15-.59,8.33-1,12.51-1,8.73,0,17.42,1.28,25.82,3.81,1.93.58,3.8,1.3,5.67,2-25.98-91.21-112.16-158.14-210.95-158.14Z"/>
    <path class="cls-1" d="M348.16,292.18c-65,0-121.34,38.86-144.63,95.98,3,1.09,5.95,2.31,8.82,3.71,9.81,4.82,18.48,11.39,25.77,19.18,14.94-45.79,58.58-79.02,110.05-79.02s97.35,35.03,111.12,82.69c7.89-9.39,17.6-17.31,28.9-22.85,1.68-.83,3.45-1.46,5.18-2.18-22.87-57.98-79.65-97.51-145.2-97.51Z"/>
    <path class="cls-1" d="M348.15,168.68c-149.71,0-272.47,115.56-280.98,260.85,6.25-1.5,12.62-2.45,19.08-2.45,3.18.03,6.13.2,8.97.52,4.17-7.27,9.26-13.8,15.11-19.51,18.58-113.24,119.81-199.67,237.82-199.67s216.68,84.3,237.24,195.39c7.88,6.64,14.65,14.61,19.92,23.79,2.84-.31,5.8-.49,8.97-.52,5.02,0,9.98.62,14.88,1.52-9.14-144.9-131.65-259.92-281.01-259.92Z"/>
  </g>
</svg>