<?xml version="1.0" encoding="UTF-8"?>
<svg id="Layer_1" data-name="Layer 1" xmlns="http://www.w3.org/2000/svg" viewBox="0 0 700.52 705.55">
  <defs>
    <style>
      .cls-1 {
        fill: #623d3c;
        fill-rule: evenodd;
      }
    </style>
  </defs>
  <path class="cls-1" d="M423.27,550.9c-32.08,35.57-57.28,58.44-60.21,61.07l-19.83,17.81-19.82-17.81c-2.9-2.61-27.61-25.03-59.21-59.95-98.69,9.26-169.31,34.01-169.31,63.08,0,36.99,114.33,66.98,255.36,66.98s255.36-29.99,255.36-66.98c0-30.34-76.9-55.96-182.35-64.2Z"/>
  <path class="cls-1" d="M343.23,57.15c-103.26,0-186.97,64.77-186.97,208.37s186.97,311.65,186.97,311.65c0,0,186.97-168.05,186.97-311.65S446.49,57.15,343.23,57.15ZM345.31,373.59c-67.11,0-121.51-54.4-121.51-121.51s54.4-121.51,121.51-121.51,121.51,54.4,121.51,121.51-54.4,121.51-121.51,121.51Z"/>
</svg>