<?xml version="1.0" encoding="UTF-8"?>
<svg id="Layer_1" data-name="Layer 1" xmlns="http://www.w3.org/2000/svg" viewBox="0 0 700.52 705.55">
  <defs>
    <style>
      .cls-1 {
        fill: #ddb0d1;
      }
    </style>
  </defs>
  <path class="cls-1" d="M535.97,52.36l-100.71,99.64c17.58-30.97,13.35-71.24-12.85-97.72h0c-31.55-31.89-83.45-32.16-115.33-.61l-92.38,91.4c17.58-30.97,13.35-71.24-12.85-97.72h0c-31.55-31.88-83.45-32.16-115.33-.61l-39.96,39.54c-31.89,31.55-32.16,83.45-.61,115.33h0c26.2,26.48,66.43,31.14,97.58,13.89l-91.17,90.21c-31.88,31.55-32.16,83.45-.61,115.33,26.2,26.48,66.43,31.14,97.58,13.89l-99.5,98.45c-31.88,31.55-32.16,83.45-.61,115.33,31.55,31.88,83.45,32.16,115.33.61l100.71-99.64c-17.58,30.97-13.35,71.24,12.85,97.72h0c31.55,31.88,83.45,32.16,115.33.61l92.38-91.4c-17.58,30.97-13.35,71.24,12.85,97.72,31.55,31.88,83.45,32.16,115.33.61l39.96-39.54c31.89-31.55,32.16-83.45.61-115.33h0c-26.2-26.48-66.43-31.14-97.58-13.89l91.17-90.21c31.88-31.55,32.16-83.45.61-115.33h0c-26.2-26.48-66.43-31.14-97.58-13.89l99.5-98.45c31.88-31.55,32.16-83.45.61-115.33-31.55-31.89-83.45-32.16-115.33-.61Z"/>
</svg>