<?xml version="1.0" encoding="UTF-8"?>
<svg id="Layer_1" data-name="Layer 1" xmlns="http://www.w3.org/2000/svg" viewBox="0 0 700.52 705.55">
  <defs>
    <style>
      .cls-1 {
        fill: #8baea7;
      }
    </style>
  </defs>
  <path class="cls-1" d="M573.83,352.78c58.47-27.97,99-87.8,99-157.33,0-96.24-77.48-174.27-173.05-174.27-64.99,0-121.54,36.12-151.12,89.47-29.59-53.35-86.14-89.47-151.12-89.47C101.95,21.18,24.47,99.21,24.47,195.45c0,69.52,40.53,129.36,99,157.33-58.47,27.97-99,87.8-99,157.32,0,96.25,77.48,174.27,173.06,174.27,64.99,0,121.54-36.12,151.12-89.47,29.58,53.35,86.14,89.47,151.12,89.47,95.58,0,173.05-78.02,173.05-174.27,0-69.52-40.53-129.36-99-157.32ZM348.65,425.3c-17.5-31.56-44.5-56.95-77.07-72.52,32.56-15.58,59.56-40.96,77.07-72.52,17.5,31.56,44.5,56.95,77.07,72.52-32.57,15.57-59.56,40.96-77.07,72.52Z"/>
</svg>